<svg viewBox="0 0 1000 1000" xmlns="http://www.w3.org/2000/svg"><path d="m995.5 641v13.58a81.79 81.79 0 0 1 -73.5 81.42c-2.55.25-5.14.39-7.76.4h-.45a47.27 47.27 0 0 0 -47.26 47.28v70.83a64.17 64.17 0 0 1 -41.67 60.11 60.12 60.12 0 0 1 -7.77 2.36 63.48 63.48 0 0 1 -14.75 1.71h-709.34c-48.89 0-88.52-31.92-88.52-95.46a91.31 91.31 0 0 1 .66-10.91 88.56 88.56 0 0 1 87.86-77.67h23.41a47.25 47.25 0 0 0 47.28-47.27v-17.49a110.62 110.62 0 0 1 70.47-103.08c2.54-1 5.13-1.91 7.77-2.69a109.85 109.85 0 0 1 27.37-4.72c1.65-.07 3.32-.11 5-.11a47.27 47.27 0 1 0 0-94.54h-121.12c-2.82 0-5.62-.12-8.38-.35s-5.21-.53-7.77-1a99.58 99.58 0 0 1 0-196.51c2.56-.42 5.14-.74 7.77-.94s5.55-.36 8.38-.36h151.68a47.25 47.25 0 0 0 47.27-47.28 54.08 54.08 0 0 1 49-53.82 50.44 50.44 0 0 1 5.09-.24h14.08a47.07 47.07 0 0 0 8.19-.71 47.59 47.59 0 0 0 7.76-2.05 44.29 44.29 0 0 0 6.44-2.87 47.5 47.5 0 0 0 21-22.91 46.85 46.85 0 0 0 3.81-16.5c0-.74.06-1.49.06-2.24v-6.8a47.29 47.29 0 0 1 47.27-47.27h273.83a47.07 47.07 0 0 1 28.4 9.48 47.86 47.86 0 0 1 7.77 7.35l.06.08a47 47 0 0 1 11 30.36v6.83 2.24a47.28 47.28 0 0 1 -47.23 45h-20.88a47.24 47.24 0 0 0 -47.28 47.26v6.8a47 47 0 0 0 4 19.11 47.93 47.93 0 0 0 3.14 5.93 47.17 47.17 0 0 0 40.1 22.24h128.2a99.81 99.81 0 0 1 18.27 1.67c2.62.48 5.22 1.07 7.76 1.77a99.6 99.6 0 0 1 0 192.24c-2.54.69-5.14 1.28-7.76 1.76a100 100 0 0 1 -18.27 1.68h-61.94a46.88 46.88 0 0 0 -9.16.89 46.15 46.15 0 0 0 -7.77 2.22 50.11 50.11 0 0 0 -4.94 2.25 46.68 46.68 0 0 0 -8.11 5.36 47.13 47.13 0 0 0 -17.31 36.58v1a47.25 47.25 0 0 0 47.29 46.29h80.22c2.62 0 5.22.16 7.76.42a81.05 81.05 0 0 1 14.66 2.83q1.05.3 2.07.63a81.77 81.77 0 0 1 56.79 77.83z" fill="#f3f4fe"/><g fill="#edeefe"><path d="m144.8 266v198.4c-2.63-.22-5.21-.53-7.77-1v-196.47c2.56-.42 5.14-.74 7.77-.93z"/><path d="m144.8 725.21v186.5h-7.8v-181.77a47.53 47.53 0 0 0 7.8-4.73z"/><path d="m234.18 265.63h7.77v199.12h-7.77z"/><path d="m242 564.12v347.59h-7.77v-344.9c2.49-1 5.08-1.91 7.77-2.69z"/><path d="m339.1 251v660.71h-7.77v-654.2a47.22 47.22 0 0 0 7.77-6.51z"/><path d="m436.24 161.53v750.18h-7.76v-748.13a47.59 47.59 0 0 0 7.76-2.05z"/><path d="m525.63 62.94h7.77v848.76h-7.77z"/><path d="m622.76 62.94h7.78v848.76h-7.78z"/><path d="m720.5 211.55v6.8a46.3 46.3 0 0 0 .4 6.16 47.07 47.07 0 0 0 6.78 18.88v668.32h-7.77v-848.77h7.77v123.57a47.08 47.08 0 0 0 -7.18 25.04z"/><path d="m824.83 79.77v67.68a47.43 47.43 0 0 1 -7.77 7.35v-82.38a47.86 47.86 0 0 1 7.77 7.35z"/><path d="m824.83 265.63v200a45.89 45.89 0 0 0 -7.77 2.22v-202.22z"/><path d="m817.06 556.18a46.83 46.83 0 0 0 7.77 2.22v349.23a60.16 60.16 0 0 1 -7.77 2.37z"/><path d="m922 269.07v192.24c-2.54.69-5.14 1.28-7.76 1.76v-195.77c2.59.48 5.19 1.07 7.76 1.77z"/><path d="m914.21 559.29c2.62 0 5.22.16 7.76.42v176.29c-2.55.25-5.14.39-7.76.4z"/></g><g fill="#d2d6fa"><path d="m456.57 360.2v16.74l-12.57 7.73v-24.47z"/><path d="m314.38 360.2v24.47l-12.57-7.73v-16.74z"/><path d="m276.66 360.19h197.86l5.99-14.62h-209.85z"/></g><path d="m301.81 360.2h12.58v7.3h-12.58z" fill="#bec4ed"/><path d="m444 360.2h12.57v7.3h-12.57z" fill="#bec4ed"/><path d="m309.14 249h6.31a8.35 8.35 0 0 1 8.35 8.35v88.22a0 0 0 0 1 0 0h-23a0 0 0 0 1 0 0v-88.22a8.35 8.35 0 0 1 8.34-8.35z" fill="#adb6e0"/><circle cx="312.3" cy="293.45" fill="#d2d6fa" r="6.22"/><path d="m336.54 268.87h8.13a7.44 7.44 0 0 1 7.44 7.44v69.25a0 0 0 0 1 0 0h-23a0 0 0 0 1 0 0v-69.24a7.44 7.44 0 0 1 7.43-7.45z" fill="#adb6e0"/><circle cx="340.61" cy="309.01" fill="#d2d6fa" r="6.22"/><path d="m362.7 295.4h5.3a4.87 4.87 0 0 1 4.87 4.87v45.3a0 0 0 0 1 0 0h-15.04a0 0 0 0 1 0 0v-45.3a4.87 4.87 0 0 1 4.87-4.87z" fill="#adb6e0"/><circle cx="365.36" cy="321.66" fill="#d2d6fa" r="4.07"/><path d="m428.16 243.48h31.13a3.11 3.11 0 0 1 3.11 3.11v98.77a0 0 0 0 1 0 0h-34.24a0 0 0 0 1 0 0v-101.88a0 0 0 0 1 0 0z" fill="#93a0ce"/><path d="m425.93 243.48h31.13a0 0 0 0 1 0 0v101.89a0 0 0 0 1 0 0h-34.25a0 0 0 0 1 0 0v-98.77a3.11 3.11 0 0 1 3.12-3.12z" fill="#adb6e0"/><circle cx="439.47" cy="260.29" fill="#93a0ce" r="8.23"/><circle cx="439.47" cy="260.29" fill="#d2d6fa" r="3.73"/><circle cx="439.47" cy="291.67" fill="#93a0ce" r="8.23"/><circle cx="439.47" cy="291.67" fill="#d2d6fa" r="3.73"/><circle cx="439.47" cy="329.87" fill="#93a0ce" r="13.37"/><g fill="#d2d6fa"><circle cx="439.47" cy="329.87" r="6.07"/><rect height="19.18" rx="9.59" width="80.66" x="905.67" y="917.88"/><rect height="19.18" rx="9.59" width="882.11" x="15.75" y="917.88"/></g><path d="m766.73 579.48h103a10.3 10.3 0 0 1 10.3 10.3v326.75a0 0 0 0 1 0 0h-113.3a0 0 0 0 1 0 0v-337a0 0 0 0 1 0-.05z" fill="#6675ad"/><path d="m759.35 579.48h103a0 0 0 0 1 0 0v337a0 0 0 0 1 0 0h-113.35a0 0 0 0 1 0 0v-326.7a10.3 10.3 0 0 1 10.35-10.3z" fill="#7986bf"/><circle cx="804.14" cy="635.06" fill="#6675ad" r="27.22"/><circle cx="804.14" cy="635.06" fill="#f3f4fe" r="12.35"/><circle cx="804.14" cy="738.88" fill="#6675ad" r="27.22"/><circle cx="804.14" cy="738.88" fill="#f3f4fe" r="12.35"/><circle cx="804.14" cy="865.24" fill="#6675ad" r="44.23"/><circle cx="804.14" cy="865.24" fill="#f3f4fe" r="20.07"/><path d="m371.32 453.81 22.6 82 1.53 5.59-2.41.72-70.42 20.76a45.67 45.67 0 0 1 -7.61 1.55c-.43.05-.88.11-1.3.14s-1 .08-1.5.1-1 0-1.45.05-.88 0-1.34 0c-1.1 0-2.23-.05-3.32-.13l-1.31-.14c-.65-.06-1.3-.15-2-.26-.42-.07-.84-.13-1.26-.22-.79-.13-1.57-.29-2.35-.48a45.7 45.7 0 0 1 -25.81-16.94c-.35-.48-.69-1-1-1.45a45.77 45.77 0 0 1 -5.05-9.58c-.43-1.15-.83-2.32-1.18-3.53s-.58-2.14-.8-3.2a45.38 45.38 0 0 1 31.56-53z" fill="#e07373"/><path d="m326.94 539a35.43 35.43 0 0 1 -23.83 19.74 13.5 13.5 0 0 1 -1.4.32c-1 .2-1.92.34-2.88.47-.24 0-.49.06-.75.08s-.67.07-1 .09c-1 .07-1.93.09-2.89.07-.36 0-.71 0-1.07 0a25.69 25.69 0 0 1 -2.61-.2l-1.23-.17a28.69 28.69 0 0 1 -3.44-.69c-.48-.11-1-.25-1.42-.39s-1-.29-1.41-.46-.92-.33-1.39-.51-.92-.37-1.37-.57l-1.37-.64a35.8 35.8 0 0 1 -6.43-4.1l-11.81-9.44-72.78-58.17a34.76 34.76 0 0 1 -3.3-3c-.46-.46-.9-.94-1.32-1.41s-1-1.16-1.42-1.75c-.33-.43-.64-.86-.95-1.31a18.89 18.89 0 0 1 -1-1.59c-.24-.37-.46-.75-.68-1.13a.75.75 0 0 1 -.1-.2 8.83 8.83 0 0 1 -.56-1.05c-.35-.64-.66-1.28-.95-1.95-.1-.23-.21-.47-.3-.71s-.26-.65-.38-1c0 0 0-.05 0-.08-.16-.43-.32-.87-.46-1.32a28.36 28.36 0 0 1 -1-3.61 7.13 7.13 0 0 1 -.23-1c-.15-.8-.27-1.6-.37-2.41q-.07-.6-.12-1.17a4.38 4.38 0 0 1 0-.51c0-.41 0-.82-.06-1.22s0-.93 0-1.41a.17.17 0 0 1 0-.12c0-.45 0-.92 0-1.37s0-1 .08-1.46c.08-1 .2-1.93.37-2.9.05-.31.12-.66.19-1a35.56 35.56 0 0 1 57-20.81l84.58 67.6a35.49 35.49 0 0 1 10.06 42.46z" fill="#edba70"/><path d="m326.94 539a35.43 35.43 0 0 1 -23.83 19.74 13.5 13.5 0 0 1 -1.4.32c-.94.21-1.91.35-2.88.47-.24 0-.49.06-.75.08s-.67.07-1 .09c-1 .07-1.93.09-2.89.07-.36 0-.71 0-1.07 0a25.69 25.69 0 0 1 -2.61-.2l-1.23-.17a28.69 28.69 0 0 1 -3.44-.69c-.48-.11-1-.25-1.42-.39s-1-.29-1.41-.46-.92-.33-1.39-.51-.92-.37-1.37-.57l-1.37-.64c-.28-.13-.56-.28-.83-.42l-.32-.14c-.61-.27-1.22-.55-1.82-.85s-1-.52-1.59-.81l-.4-.23c-.52-.29-1.05-.59-1.56-.9l-.81-.51c-.55-.36-1.09-.7-1.62-1.07l-.75-.54c-.51-.38-1-.76-1.54-1.17-.74-.57-1.45-1.18-2.17-1.82-.91-.82-1.79-1.68-2.66-2.59s-1.48-1.64-2.17-2.49l-72.78-58.17a34.76 34.76 0 0 1 -3.3-3c-.46-.46-.9-.94-1.32-1.41s-1-1.16-1.42-1.75c-.33-.43-.64-.86-.95-1.31a18.89 18.89 0 0 1 -1-1.59c-.24-.37-.46-.75-.68-1.13a.75.75 0 0 1 -.1-.2 8.83 8.83 0 0 1 -.56-1.05c-.35-.64-.66-1.28-.95-1.95-.1-.23-.21-.47-.3-.71s-.26-.65-.38-1c0 0 0-.05 0-.08-.16-.43-.32-.87-.46-1.32a28.36 28.36 0 0 1 -1-3.61 7.13 7.13 0 0 1 -.23-1c-.15-.8-.29-1.61-.37-2.41q-.07-.6-.12-1.17a4.38 4.38 0 0 1 0-.51c0-.41 0-.82-.06-1.22s0-.93 0-1.41a.17.17 0 0 1 0-.12c0-.45 0-.92 0-1.37a10.61 10.61 0 0 1 0-1.12c0-.11 0-.21 0-.34.08-1 .2-1.93.37-2.9.05-.33.11-.67.18-1a35.39 35.39 0 0 0 13.3 26.06l63.82 51 9 7.18 11.79 9.43a34.88 34.88 0 0 0 5.65 3.69 45.3 45.3 0 0 0 14.36 3.5 46.17 46.17 0 0 0 10.95-.5 45.15 45.15 0 0 0 22.86-11.11z" fill="#38cea1"/><path d="m374.42 534.5c-27.09-22.82-29.8-53.95-17.23-76.64l64.64-18.79a27.87 27.87 0 0 1 28.49 8.1 57.27 57.27 0 0 1 12.51 22.48c12.23 42.05-25.68 86.78-78.57 70.23a28.49 28.49 0 0 1 -9.84-5.38z" fill="#e07373"/><path d="m317.32 628-123.79 49-72.2-218c-4.69-14.17 2-29.82 15-35l13.16-5.21c48.13-19.06 101.29 8.17 118.72 60.81z" fill="#f8c97b"/><path d="m201.47 415.17c-13.53 14-37.17 12.95-55.75 5.15l1.55-21.85 2.54-36h48.39l2.18 35z" fill="#f5a491"/><path d="m200.38 397.49c-14.47 10.65-41.45 1.4-52.47-8.06l1.9-26.94h48.39z" fill="#ef927f"/><path d="m649.11 911.44-102.11 2.25a16.66 16.66 0 0 1 -12-4.77 16.74 16.74 0 0 1 -4.76-9.29l-2.77-18-2.25-14.54-2.9-18.77-1.56-10.08-.24-1.49-.66-4.26 53.8-8.52.35 2.16.33 2.11 1.83 11.57 2.64 16.65 2.08 13.21a9.43 9.43 0 0 0 .51 1.91 10.16 10.16 0 0 0 8.58 6.61 8.9 8.9 0 0 0 1.17.06l22.78-.5a34.48 34.48 0 0 1 34.2 26.14 33 33 0 0 1 .89 5.57c.05.67.07 1.33.09 1.98z" fill="#f5a491"/><path d="m518.49 917.48 131.4.06a6.87 6.87 0 0 0 6.86-7 6.87 6.87 0 0 0 -7.16-6.71l-131.27 5.84a3.91 3.91 0 0 0 -3.74 4 3.92 3.92 0 0 0 3.91 3.81z" fill="#65617b"/><path d="m650.32 909.44-77.43 1.7a38.72 38.72 0 1 1 77.43-1.7z" fill="#65617b"/><path d="m581.37 871.58-53.93 10-2.25-14.54-2.9-18.77-1.56-10.08 53.58-10 1.83 11.57 2.64 16.65 2.08 13.21a9.43 9.43 0 0 0 .51 1.96z" fill="#ef927f"/><path d="m741.51 713-83.51 58.73a16.63 16.63 0 0 1 -12.64 2.74 16.73 16.73 0 0 1 -9.13-5.06l-12.36-13.41-10-10.82-12.87-14-6.92-7.51-1-1.1-2.92-3.17 39.92-37.06 1.49 1.6 1.45 1.56 8 8.59 11.47 12.36 9.08 9.8a10.76 10.76 0 0 0 1.49 1.31 10.18 10.18 0 0 0 10.81.7 6.46 6.46 0 0 0 1-.6l18.63-13.06a34.49 34.49 0 0 1 43 2.64 32.92 32.92 0 0 1 3.84 4.14c.4.51.79 1.04 1.17 1.62z" fill="#f5a491"/><path d="m636.42 790.77 109.13-73.19a6.86 6.86 0 0 0 1.79-9.64 6.85 6.85 0 0 0 -9.68-1.57l-105.74 78a3.91 3.91 0 0 0 -.87 5.4 3.91 3.91 0 0 0 5.37 1z" fill="#65617b"/><path d="m741.4 710.61-63.34 44.58a38.73 38.73 0 1 1 63.34-44.58z" fill="#65617b"/><path d="m663 717.62-39.13 38.38-10-10.82-12.87-14-6.92-7.51 38.92-38.11 8 8.59 11.47 12.36 9.08 9.8a10.76 10.76 0 0 0 1.45 1.31z" fill="#ef927f"/><path d="m515.59 550.49 142.94 149.75-50.53 50.34-149.12-143.64a40 40 0 0 1 -.46-57.18 40 40 0 0 1 57.17.73z" fill="#65617b"/><path d="m566.24 652 19.43 206.11-70.9 8.18-28-205.12a40 40 0 0 1 35.06-45.16 40 40 0 0 1 44.41 35.99z" fill="#56526a"/><path d="m224.06 615.76h301.52a40.86 40.86 0 0 1 40.86 40.86 40.86 40.86 0 0 1 -40.86 40.86h-301.52a0 0 0 0 1 0 0v-81.72a0 0 0 0 1 0 0z" fill="#56526a"/><path d="m551.92 862.24-16-170.72a43.18 43.18 0 0 0 -44.43-39.09l-280.83 9.64-.07-2.13 280.83-9.64a45.33 45.33 0 0 1 46.62 41l16 170.72z" fill="#edeefe"/><path d="m193.68 589.36h301.52a40.86 40.86 0 0 1 40.86 40.86 40.86 40.86 0 0 1 -40.86 40.86h-301.52a0 0 0 0 1 0 0v-81.72a0 0 0 0 1 0 0z" fill="#65617b" transform="matrix(.92274002 -.38542295 .38542295 .92274002 -214.69 189.29)"/><path d="m532.14 616c-1-.1-2-.17-3.09-.19l-11.3-12.15a57.15 57.15 0 0 0 -64.89-13.36l-245 108.17-.85-1.94 244.99-108.2a59.27 59.27 0 0 1 67.3 13.86z" fill="#f3f4fe"/><path d="m635.43 727.03-1.55 1.45-67.79-72.87-.12-3.26z" fill="#f3f4fe"/><rect fill="#65617b" height="15.01" rx="7.5" transform="matrix(.69428163 -.71970342 .71970342 .69428163 -326.07 674.3)" width="92.27" x="584.61" y="713.49"/><ellipse cx="209.85" cy="299.99" fill="#7c5b5d" rx="14.33" ry="28.77" transform="matrix(.99424483 -.10713175 .10713175 .99424483 -30.93 24.21)"/><path d="m108.64 308.17 4.79 28.63a66.4 66.4 0 0 0 76.46 54.5 39.94 39.94 0 0 0 32.77-46l-6.81-40.67-1.16-6.87-.43-2.53-1.26-7.48a33.25 33.25 0 0 0 -38.31-27.29l-7.1 1.19-29.31 4.91a35.73 35.73 0 0 0 -10.84 3.64 36.27 36.27 0 0 0 -16.29 17.5 35.83 35.83 0 0 0 -2.51 20.47z" fill="#f5a491"/><path d="m117.76 308.64c9.23 17.94 41.62 19.66 72.34 3.85a99.3 99.3 0 0 0 24.16-17.25l-1.26-7.49a33.25 33.25 0 0 0 -38.31-27.29l-7.1 1.19-29.31 4.91a35.73 35.73 0 0 0 -10.84 3.64c-11.06 13.15-15.29 27.54-9.68 38.44z" fill="#ef927f"/><circle cx="165.39" cy="324.36" fill="#5e4041" r="4.59"/><circle cx="197.69" cy="323.31" fill="#5e4041" r="4.59"/><path d="m188.9 341.17a10.23 10.23 0 0 1 -2.76 7.37c-.23.24-.47.47-.72.7a10.22 10.22 0 0 1 -6.42 2.56h-.41a10.31 10.31 0 0 1 -10.57-9.1 7.9 7.9 0 0 1 -.07-.85 2 2 0 0 1 1.93-2.06l17-.57a2 2 0 0 1 2.02 1.95z" fill="#962f4a"/><path d="m178.7 350.23a7.64 7.64 0 0 1 -.1 1.59h-.06a10.29 10.29 0 0 1 -10.56-9.1 8.37 8.37 0 0 1 2.27-.4 8.19 8.19 0 0 1 8.45 7.91z" fill="#e1617f"/><path d="m186.46 339.25c0 2-3.07 3.75-6.89 3.87s-7-1.38-7.14-3.39z" fill="#fff"/><path d="m131.66 298.72h2.43a0 0 0 0 1 0 0v55.51a0 0 0 0 1 0 0h-28a0 0 0 0 1 0 0v-29.94a25.57 25.57 0 0 1 25.57-25.57z" fill="#7c5b5d" transform="matrix(-.99424483 .10713175 -.10713175 -.99424483 274.46 638.2)"/><circle cx="118.83" cy="341.73" fill="#f5a491" r="16.89"/><path d="m113.55 340.37a7.3 7.3 0 0 0 4.3 6.83 2.08 2.08 0 0 0 2.87-1.91l.24-9.48a2.12 2.12 0 0 0 -3-2 7.32 7.32 0 0 0 -4.41 6.56z" fill="#ef927f"/><circle cx="115.44" cy="284.37" fill="#7c5b5d" r="30.47"/><path d="m85.14 287.64a30.36 30.36 0 0 0 13.07 21.85 30.46 30.46 0 0 1 38.18-47.25 30.47 30.47 0 0 0 -51.25 25.4z" fill="#5e4041"/><g fill="#7c5b5d"><circle cx="145.29" cy="263.57" r="40.88"/><circle cx="196.64" cy="268.2" r="40.88"/><circle cx="145.29" cy="263.57" r="40.88"/><circle cx="196.64" cy="268.2" r="40.88"/></g><g fill="#5e4041"><path d="m104.53 260.36a40.84 40.84 0 0 1 62.62-20.45 37.26 37.26 0 0 1 4.74 4 38.72 38.72 0 0 1 6.88-3.75 42.42 42.42 0 0 0 -4.94-5.83 40.89 40.89 0 0 0 -69.3 26.07z"/><path d="m167.15 239.91a37.26 37.26 0 0 1 4.74 4 38.72 38.72 0 0 1 6.88-3.75 40.32 40.32 0 0 1 11.55-3 40.87 40.87 0 0 1 45 36.25 42 42 0 0 1 .11 7.59 40.87 40.87 0 0 0 -61.63-46.68 38.79 38.79 0 0 0 -6.65 5.59z"/><circle cx="139.56" cy="269.59" r="17.62"/></g><rect fill="#f0a284" height="28.18" rx="14.09" transform="matrix(.52947515 -.84832544 .84832544 .52947515 -251.42 483.2)" width="79.16" x="270.31" y="454.16"/><circle cx="425.86" cy="426.87" fill="#2329ad" r="6.81"/><circle cx="427.79" cy="426.72" fill="#161762" r="6.81"/><path d="m334.88 549.25 87.58-7.19a13.85 13.85 0 0 0 12.66-12.53l13.49-146.53a13.86 13.86 0 0 0 -14.92-15.08l-87.58 7.19a13.85 13.85 0 0 0 -12.66 12.53l-13.45 146.54a13.84 13.84 0 0 0 14.88 15.07z" fill="#7a59a4"/><path d="m345.16 548.41 87.57-7.19a13.84 13.84 0 0 0 12.66-12.53l13.5-146.52a13.85 13.85 0 0 0 -14.89-15.07l-87.57 7.18a13.86 13.86 0 0 0 -12.67 12.54l-13.53 146.51a13.86 13.86 0 0 0 14.93 15.08z" fill="#593870"/><path d="m379.78 458.65a16.63 16.63 0 0 0 30.36 8 15.56 15.56 0 0 1 -4.35 1 16.65 16.65 0 0 1 -18-15.23 16.36 16.36 0 0 1 2.82-10.64 16.54 16.54 0 0 0 -10.83 16.87z" fill="#7a59a4"/><g fill="#ed9281"><rect height="23.8" rx="11.9" transform="matrix(.90205864 -.43161349 .43161349 .90205864 -153.46 236.02)" width="47.98" x="419.23" y="444.18"/><rect height="23.8" rx="11.9" transform="matrix(.90205864 -.43161349 .43161349 .90205864 -161.23 242.17)" width="47.98" x="428.89" y="464.38"/><rect height="23.8" rx="11.9" transform="matrix(1 -.03 .03 1 -15.83 14.91)" width="47.98" x="432.29" y="488.57"/></g><rect fill="#edba70" height="179.34" rx="35.53" transform="matrix(-.86776545 .49697396 -.49697396 -.86776545 577.63 893.11)" width="71.05" x="134.46" y="433.74"/><path d="m107.73 472.91a35.54 35.54 0 0 1 60.71 1.57l53.81 94a35.32 35.32 0 0 1 4.52 21.17 35.47 35.47 0 0 0 1-36.87l-53.82-94a35.53 35.53 0 0 0 -66.18 14.14z" fill="#e0ab65"/><path d="m333.07 556c18.37-13.56 21.17-40.91 6.28-61.09-11.36-15.38-29.73-22.15-46-18.49a37.8 37.8 0 0 0 -14.24 6.58l-101.29 74.8c-18.37 13.56-21.18 40.91-6.28 61.09s41.87 25.54 60.23 12z" fill="#f0a284"/><rect fill="#fcb798" height="78.87" rx="11.14" transform="matrix(-.5798501 -.81472318 .81472318 -.5798501 -93.48 1124.91)" width="22.28" x="232.18" y="547.12"/><g fill="#f0a284"><path d="m294.44 568.94c-33-12.76-45.74-41.31-41.24-66.85l55-38.81a27.89 27.89 0 0 1 29.58-1.62 57.43 57.43 0 0 1 19.15 17.18c25.24 35.78 4 90.41-51.43 92a28.61 28.61 0 0 1 -11.06-1.9z"/><rect height="28.18" rx="14.09" transform="matrix(.76828352 -.6401097 .6401097 .76828352 -226.61 315.28)" width="72.32" x="286.03" y="456.57"/><rect height="28.18" rx="14.09" transform="matrix(.88596088 -.46375999 .46375999 .88596088 -198.93 220.3)" width="72.32" x="312.35" y="500.59"/></g><path d="m171.55 618.86c12.66 17.14 34 23.59 51.43 16.83a38.28 38.28 0 0 0 8.79-4.85l82.17-60.7c30.6-4.1 49.05-25.41 52.8-49.1l7.85-4.1a14.12 14.12 0 0 0 6.62-17.61 12.14 12.14 0 0 0 -.65-1.42c-.2-.38-.4-.73-.62-1.1a14.06 14.06 0 0 1 -7.54 11.73l-5 2.6-2.88 1.5a54.85 54.85 0 0 1 -2.89 11.07 57.36 57.36 0 0 1 -26.19 30.37 66.16 66.16 0 0 1 -23.67 7.66l-11.77 8.71-70.39 52a38.77 38.77 0 0 1 -8.8 4.85c-17.41 6.76-38.77.31-51.43-16.83a48.58 48.58 0 0 1 -6.77-12.64 48.94 48.94 0 0 0 8.94 21.03z" fill="#fcb798"/><rect fill="#f0a284" height="28.18" rx="14.09" transform="matrix(.84329766 -.5374468 .5374468 .84329766 -210.52 258.86)" width="96.8" x="290.31" y="476.4"/><rect fill="#56526a" height="15.01" rx="7.5" transform="matrix(.99088942 -.13467799 .13467799 .99088942 -110.44 82.03)" width="92.27" x="504.86" y="849.72"/><path d="m486.47 717.82a33.65 33.65 0 0 1 -33.65 33.65h-258a27.25 27.25 0 0 1 -26.24-19.89l-98.66-351.88a15.28 15.28 0 0 1 10.32-18.7l7.53-2.26a31.89 31.89 0 0 1 39.71 21.4l50.52 168.62a64.39 64.39 0 0 0 61.68 45.91h113.62a58.4 58.4 0 0 1 58.39 58.4v31.09h41.13a33.66 33.66 0 0 1 33.65 33.66z" fill="#6675ad"/><path d="m486.45 716.5a33.68 33.68 0 0 1 -24.73 33.78 33.92 33.92 0 0 0 1-10.08c-.93-18-16.26-31.89-34.28-31.89h-29a11.42 11.42 0 0 1 -11.44-11.42v-19.68a58.4 58.4 0 0 0 -58.4-58.39h-113.6a64.41 64.41 0 0 1 -61.69-45.92l-50.55-168.66a31.88 31.88 0 0 0 -33.3-22.63l-.54-1.92a15.28 15.28 0 0 1 10.32-18.69l7.52-2.26a31.9 31.9 0 0 1 39.72 21.4l50.52 168.62a64.4 64.4 0 0 0 61.69 45.91h113.6a58.41 58.41 0 0 1 58.41 58.41v31.08h40.51c18.18 0 33.54 14.17 34.24 32.34z" fill="#5b6da5"/><path d="m233.33 751.48-6.46 23.64-39.08 142.76h-12.3l29.86-142.76 4.94-23.64z" fill="#6675ad"/><path d="m477.11 917.88h-12.3l-39.08-142.76-6.46-23.64h23.04l4.94 23.64z" fill="#6675ad"/><path d="m210.29 751.48h23.04l-6.46 23.64h-21.52z" fill="#5b6da5"/><path d="m447.25 775.12h-21.52l-6.46-23.64h23.04z" fill="#5b6da5"/><rect fill="#adb6e0" height="401.47" rx="26.19" width="210.46" x="559.71" y="149.36"/><rect fill="#f3f4fe" height="372.73" rx="14.05" width="183.66" x="573.11" y="163.73"/><path d="m756.77 177.77v344.64a14 14 0 0 1 -14 14.05h-155.61a14 14 0 0 1 -14-14.05v-344.64a14 14 0 0 1 14-14h155.56a14 14 0 0 1 14.05 14z" fill="#f3f4fe"/><path d="m756.77 260.94v261.47a14 14 0 0 1 -14 14.05h-57v-301.83z" fill="#ebecfd"/><path d="m650.81 536.46v-230.42l34.9-20.94v251.36z" fill="#d9dcfb"/><path d="m611.07 258.25v278.21h-23.91a14 14 0 0 1 -14-14.05v-250.2z" fill="#ebecfd"/><path d="m635.77 266.84v269.62h-24.7v-278.21z" fill="#d9dcfb"/><g fill="#f1f2fd"><path d="m699.02 273.57h17.38v9.42h-17.38z"/><path d="m576.63 294.89h29.65v-27.58l-29.65 11.35z"/><path d="m731.2 273.57h17.38v9.42h-17.38z"/><path d="m699.02 298.36h17.38v9.42h-17.38z"/><path d="m731.2 298.36h17.38v9.42h-17.38z"/><path d="m699.02 323.14h17.38v9.42h-17.38z"/><path d="m731.2 323.14h17.38v9.42h-17.38z"/><path d="m699.02 347.93h17.38v9.42h-17.38z"/><path d="m731.2 347.93h17.38v9.42h-17.38z"/><path d="m699.02 372.71h17.38v9.42h-17.38z"/><path d="m731.2 372.71h17.38v9.42h-17.38z"/><path d="m699.02 397.5h17.38v9.42h-17.38z"/><path d="m731.2 397.5h17.38v9.42h-17.38z"/><path d="m699.02 422.28h17.38v9.42h-17.38z"/><path d="m731.2 422.28h17.38v9.42h-17.38z"/><path d="m699.02 447.07h17.38v9.42h-17.38z"/><path d="m731.2 447.07h17.38v9.42h-17.38z"/><path d="m699.02 471.85h17.38v9.42h-17.38z"/><path d="m731.2 471.85h17.38v9.42h-17.38z"/><path d="m699.02 496.64h17.38v9.42h-17.38z"/><path d="m731.2 496.64h17.38v9.42h-17.38z"/><path d="m699.02 521.43h17.38v9.42h-17.38z"/><path d="m731.2 521.43h17.38v9.42h-17.38z"/><path d="m576.63 303.07h29.65v13.56h-29.65z"/><path d="m576.63 326.26h10.89v13.56h-10.89z"/><path d="m595.39 326.26h10.89v13.56h-10.89z"/><path d="m576.63 353.06h29.65v13.56h-29.65z"/><path d="m576.63 376.25h10.89v13.56h-10.89z"/><path d="m595.39 376.25h10.89v13.56h-10.89z"/><path d="m576.63 403.05h29.65v13.56h-29.65z"/><path d="m576.63 426.25h10.89v13.56h-10.89z"/><path d="m595.39 426.25h10.89v13.56h-10.89z"/><path d="m576.63 452.64h29.65v13.56h-29.65z"/><path d="m576.63 475.84h10.89v13.56h-10.89z"/><path d="m595.39 475.84h10.89v13.56h-10.89z"/><path d="m576.63 502.24h29.65v13.56h-29.65z"/></g><g fill="#adb6e0"><path d="m535.66 187.82h255.11l10.03-14.39h-275.17z"/><path d="m535.66 212.39h255.11l10.03-14.4h-275.17z"/><path d="m535.66 236.96h255.11l10.03-14.4h-275.17z"/><path d="m535.66 261.52h255.11l10.03-14.39h-275.17z"/><path d="m582.5 261.52h5.14v63.23h-5.14z"/><rect height="22.81" rx="5.95" width="11.9" x="579.12" y="316.35"/></g></svg>