<svg viewBox="0 0 1000 1000" xmlns="http://www.w3.org/2000/svg"><path d="m963.5 624.35v10.41a131.84 131.84 0 0 1 -25.15 77.65 133.84 133.84 0 0 1 -19.35 21.36 132.1 132.1 0 0 1 -87.91 33.39h-53.63a27.37 27.37 0 0 0 -27.37 27.36v101.82a0 0 0 0 1 -.05 0h-456.66a0 0 0 0 1 -.05 0v-101.86a27.34 27.34 0 0 0 -27.33-27.32h-90.33c-1.43 0-2.85 0-4.27-.06a137 137 0 0 1 -55.94-13.78q-2.19-1.07-4.35-2.22a137 137 0 0 1 -24-16.24q-4.53-3.81-8.71-8a138.09 138.09 0 0 1 -12.56-14.44 136.83 136.83 0 0 1 -25.86-60.12 138.77 138.77 0 0 1 -.66-41 135.1 135.1 0 0 1 6.49-27.3 137.72 137.72 0 0 1 129.86-92h106a35.76 35.76 0 0 0 5.85-71 35.26 35.26 0 0 0 -5.85-.48h-78.84a83.61 83.61 0 1 1 .17-167.3 69.25 69.25 0 0 0 69.18-69.34 97.87 97.87 0 0 1 97.82-97.88h436a83.55 83.55 0 0 1 83.56 80.69c1.64 47.57-37.09 86.52-84.69 86.52h-36.8a48.56 48.56 0 0 0 -23.57 6.09q-1.2.68-2.37 1.41a48.75 48.75 0 0 0 -17.2 18.73 48.07 48.07 0 0 0 -5.16 17 49.2 49.2 0 0 0 -.29 5.32 48.57 48.57 0 0 0 48.59 48.59c.89 0 1.78 0 2.66.06 1.49.06 3 .17 4.44.34a62.39 62.39 0 0 1 23.73 7.65 63.11 63.11 0 0 1 26.33 28.41l.1.21a62.5 62.5 0 0 1 4 11.4q.29 1.15.51 2.34a62.35 62.35 0 0 1 1.28 12.61v43a43.91 43.91 0 0 0 31.24 42.1c25.57 7.65 60.89 23.78 82.32 57a113.22 113.22 0 0 1 13.1 28.53 130.44 130.44 0 0 1 5.22 27.3q.5 6.3.5 13.05z" fill="#f3f4fe"/><g fill="#d2d6fa"><path d="m395.56 524a110 110 0 0 1 1.44-17.92 67.66 67.66 0 1 1 95.9-90.43 110.3 110.3 0 0 1 11.56-.61 108.93 108.93 0 1 1 -108.9 108.96z"/><path d="m831.1 413.43v30.16a67.77 67.77 0 0 1 -76.55 37.41c-1.31-.3-2.62-.64-3.9-1a67.69 67.69 0 0 1 5.11-131.16 48.52 48.52 0 0 0 12.31 1.58c.89 0 1.78 0 2.66.06a63 63 0 0 1 60.36 63z"/><path d="m574.66 367.51a67.67 67.67 0 1 1 -37.66-102 80.3 80.3 0 1 1 37.66 102z"/></g><path d="m430.81 693.54a80.26 80.26 0 0 1 -129.09 63.72 51.88 51.88 0 0 1 -14.88 19.56 27.32 27.32 0 0 0 -20.84-9.66h-90.33c-1.43 0-2.85 0-4.27-.06a137 137 0 0 1 -55.94-13.78q-2.19-1.07-4.35-2.22a137 137 0 0 1 -24-16.24q-4.53-3.81-8.71-8a138.09 138.09 0 0 1 -12.56-14.44 136.83 136.83 0 0 1 -25.86-60.12 134.29 134.29 0 0 1 63.57 64.9 80.26 80.26 0 0 1 99.45 11.46 51.81 51.81 0 0 1 67.46-41.22 80.27 80.27 0 0 1 80-74.19c1.93 0 3.84.07 5.74.2a80.3 80.3 0 0 1 74.61 80.09z" fill="#adb6e0"/><path d="m963.5 624.35v10.41a131.84 131.84 0 0 1 -25.15 77.65 133.84 133.84 0 0 1 -19.35 21.36 132.1 132.1 0 0 1 -87.91 33.39h-53.68a27.32 27.32 0 0 0 -27.32 27.32v101.91h-456.76v-101.91a27.34 27.34 0 0 0 -27.33-27.32h-28.46a94.39 94.39 0 0 1 57.12-3.55 70.81 70.81 0 0 1 58.95-78.87 123.77 123.77 0 0 1 113.85-154.81 66.13 66.13 0 0 1 -.82-9.81 65.06 65.06 0 0 1 2.36-17.24 106.17 106.17 0 0 1 -67.65-112.18 106.12 106.12 0 0 1 51.52-78.53 106.16 106.16 0 0 1 88.48-8.83 105.27 105.27 0 0 1 169.25 75.84c.61-.06 1.23-.11 1.84-.14 1-.07 2.06-.1 3.11-.1a48.63 48.63 0 0 1 45.05 30.34 132.5 132.5 0 0 1 64.73-22.19 62.94 62.94 0 0 1 5.76 26.35v43a43.91 43.91 0 0 0 31.24 42.1c25.57 7.65 60.89 23.78 82.32 57a113.22 113.22 0 0 1 13.13 28.46 130.44 130.44 0 0 1 5.22 27.3q.5 6.3.5 13.05z" fill="#eaecfd"/><path d="m432.15 438.72a84.63 84.63 0 0 0 56.21 50.07 84.79 84.79 0 0 1 66.64-154.16 84.79 84.79 0 0 0 -122.85 104.09z" fill="#f0f1fc"/><path d="m831.1 413.43v9a86.39 86.39 0 0 0 -80 72.36 87 87 0 0 1 -.48-14.79 86.5 86.5 0 0 1 78.66-81.51 63 63 0 0 1 1.82 14.94z" fill="#f0f1fc"/><g fill="#d2d6fa"><rect height="17.61" rx="8.8" width="74.06" x="853.61" y="896.39"/><rect height="17.61" rx="8.8" width="809.94" x="36.5" y="896.39"/><path d="m938.35 712.41a133.84 133.84 0 0 1 -19.35 21.36 132.1 132.1 0 0 1 -87.91 33.39h-53.68a27.32 27.32 0 0 0 -27.32 27.32v101.91h-456.76v-101.91a27.34 27.34 0 0 0 -27.33-27.32h-90.33c-1.43 0-2.85 0-4.27-.06a137 137 0 0 1 -55.94-13.78q-2.19-1.07-4.35-2.22a137 137 0 0 1 -24-16.24q-4.53-3.81-8.71-8a138.09 138.09 0 0 1 -12.56-14.44h872.51z"/></g><path d="m963.5 624.35v10.41a131.84 131.84 0 0 1 -25.15 77.65h-872.55a137.76 137.76 0 0 1 -26.52-101.11h923.72q.5 6.3.5 13.05z" fill="#c4cbf2"/><g fill="#a6b2e8"><path d="m938.35 712.41a133.84 133.84 0 0 1 -19.35 21.36 132.15 132.15 0 0 1 -24.66 17.33h-783.23a137 137 0 0 1 -24-16.24q-4.53-3.81-8.71-8a138.09 138.09 0 0 1 -12.56-14.44h872.51z"/><path d="m293.33 834h59.2a6.65 6.65 0 0 1 6.65 6.65v21.8a6.65 6.65 0 0 1 -6.65 6.65h-59.2a0 0 0 0 1 0 0v-35.1a0 0 0 0 1 0 0z"/><rect height="35.09" rx="6.65" width="86.14" x="398.4" y="778.15"/><rect height="35.09" rx="6.65" width="86.14" x="537.17" y="833.98"/><rect height="35.09" rx="6.65" width="86.14" x="656.81" y="778.15"/></g><path d="m602.48 444.94c-46.69 29.85-103.61 24.28-127.48-12.36-34.53 4-66.05-8.38-79.55-34.51-14-27.08-4.68-61.35 20.51-87.59a32.57 32.57 0 0 1 -12.87-10.22c-11.85-15.83-7-39.95 10.22-57-3.79-8.67-4.72-17.78-2.1-26.44 7-23.17 37-35 69.24-28.4h.05a81.18 81.18 0 0 1 25.7-11.76c36-9.39 71.37 6.6 79 35.72a46.44 46.44 0 0 1 -1.39 27.41l.17.15a43.73 43.73 0 0 1 13.53 22.94c2.2 10.1.51 20.33-4.24 29.72 21.49 3.08 40.1 13.58 51.27 31.06 23.66 36.98 4.84 91.34-42.06 121.28z" fill="#6c4a67"/><path d="m422.61 216.79c-2.61 8.66-1.69 17.77 2.1 26.44-17.28 17.08-22.07 41.2-10.23 57a32.85 32.85 0 0 0 12.87 10.22c-25.18 26.24-34.47 60.51-20.49 87.59 11.06 21.41 34.23 33.59 61.24 35.1-31.78 1.68-60.06-10.72-72.65-35.1-14-27.08-4.68-61.35 20.51-87.59a32.57 32.57 0 0 1 -12.87-10.22c-11.85-15.83-7-39.95 10.22-57-3.79-8.67-4.72-17.78-2.1-26.44 6.14-20.29 29.92-31.86 57.39-30-22.44 1.57-40.72 12.57-45.99 30z" fill="#775674"/><path d="m341.2 472.73a34.65 34.65 0 0 0 55.11 27.95l23.46-17.15.09-.07 4.22-3.08 65.48-47.88a34.62 34.62 0 0 0 -7-59.88c-.89-.38-1.8-.72-2.7-1a34.52 34.52 0 0 0 -31.23 4.94l-93.23 68.17a34.62 34.62 0 0 0 -14.2 28z" fill="#ef948c"/><path d="m341.2 472.73a34.5 34.5 0 0 0 6.68 20.43 32.63 32.63 0 0 0 3.62 4.19 34.69 34.69 0 0 1 10.5-43.56l93.26-68.2a34.64 34.64 0 0 1 44.78 3.32 35.33 35.33 0 0 0 -3-4.84 34.67 34.67 0 0 0 -48.44-7.52l-93.2 68.18a34.62 34.62 0 0 0 -14.2 28z" fill="#e87a74"/><rect fill="#ef948c" height="144.19" rx="27.04" transform="matrix(.45647689 -.88973527 .88973527 .45647689 -220.7 636.35)" width="54.07" x="383.41" y="426.71"/><ellipse cx="466.1" cy="522.77" fill="#ef948c" rx="36.28" ry="28.6" transform="matrix(.944663 -.3280424 .3280424 .944663 -145.67 181.78)"/><path d="m462.09 543.8a28.76 28.76 0 0 1 -12.65-7.94l-18.86-9.68-59.58-30.58a27 27 0 0 1 -6.13-43.81 27 27 0 0 0 -6.82 50.5l78.49 40.26c8.24 9.2 23.82 12.49 39 7.25a44.52 44.52 0 0 0 12.2-6.48 41.57 41.57 0 0 1 -25.65.48z" fill="#e87a74"/><g fill="#2b2137"><path d="m583.77 239.78a44.94 44.94 0 0 0 -1.32-14.78c-7.6-29.13-43-45.11-79-35.72-24.62 6.44-43.18 23.07-50 42.26 1.84-24.23 22.81-47.12 52.72-54.94 36-9.39 71.37 6.6 79 35.72a46.21 46.21 0 0 1 -1.4 27.46z"/><path d="m602.48 444.94c-32.31 20.65-69.5 24.35-97.26 12.54 25.43 5.5 55.76 0 82.67-17.15 46.9-30 65.72-84.3 42-121.35a66.48 66.48 0 0 0 -30.51-25.35c18.85 4.09 35 14.18 45.09 29.95 23.73 37.06 4.91 91.42-41.99 121.36z"/><path d="m541.56 329.11c-36.91 8.06-71.89-8.54-78.13-37.08a41.83 41.83 0 0 1 -.24-16.6c.08.39.15.77.24 1.17 6.24 28.54 41.22 45.14 78.13 37.07 29.73-6.49 51.66-27 55.78-49.69 5.32 28.19-19.34 57.17-55.78 65.13z"/></g><path d="m340.15 718.99h67.07v31.25h-67.07z" fill="#ef948c" transform="matrix(-.35282169 -.93569057 .93569057 -.35282169 -181.88 1343.42)"/><path d="m347.41 724.01h67.07v15.72h-67.07z" fill="#e87a74" transform="matrix(-.35282169 -.93569057 .93569057 -.35282169 -169.49 1346.52)"/><path d="m337.28 713 23.86 63.29a33.82 33.82 0 1 0 -23.86-63.29z" fill="#fff"/><path d="m357.07 779.61-25.6-67.91a11.46 11.46 0 0 1 6.69-14.78 11.46 11.46 0 0 1 15.12 7.74l18.92 70.06a8 8 0 0 1 -4.87 9.53 8 8 0 0 1 -10.26-4.64z" fill="#2b2137"/><path d="m586.66 735.6h67.07v31.25h-67.07z" fill="#ef948c" transform="matrix(.43334452 -.90122834 .90122834 .43334452 -325.59 984.59)"/><path d="m578.5 740.73h67.07v13.13h-67.07z" fill="#e87a74" transform="matrix(.43334452 -.90122834 .90122834 .43334452 -326.68 975)"/><path d="m629.9 792 29.31-60.95a33.82 33.82 0 0 0 -29.31 60.95z" fill="#fff"/><path d="m664.43 731.73-31.43 65.41a11.48 11.48 0 0 1 -15.32 5.36 11.48 11.48 0 0 1 -4.84-16.29l37.62-62.05a8 8 0 0 1 10.26-3 8 8 0 0 1 3.71 10.57z" fill="#2b2137"/><circle cx="506.13" cy="626.67" fill="#57879e" r="93.71"/><path d="m538.79 519.69a47.81 47.81 0 0 1 47.81 47.81v270.9a4.7 4.7 0 0 1 -4.7 4.7h-86.21a4.7 4.7 0 0 1 -4.7-4.7v-270.9a47.81 47.81 0 0 1 47.81-47.81z" fill="#57879e" transform="matrix(.33084382 .94368552 -.94368552 .33084382 1003.61 -52.46)"/><path d="m662.1 688.83-255.65 89.61a4.69 4.69 0 0 1 -6-2.88l-4.45-12.84 255.1-89.42a47.78 47.78 0 0 0 29.3-60.92c-.43-1.23-.89-2.41-1.41-3.57a47.81 47.81 0 0 1 -16.84 80z" fill="#639fb7"/><path d="m482.71 302.63v60.62a21.64 21.64 0 0 0 43.27 0v-60.62a21.64 21.64 0 0 0 -43.27 0z" fill="#ef948c"/><path d="m672.84 472.73a34.66 34.66 0 0 1 -55.12 27.95l-23.45-17.16-.09-.07-4.18-3.08-65.52-47.87a34.62 34.62 0 0 1 7-59.88 27.53 27.53 0 0 1 2.7-1 34.49 34.49 0 0 1 31.23 4.94l93.24 68.18a34.65 34.65 0 0 1 14.19 27.99z" fill="#ef948c"/><path d="m672.84 472.73a34.53 34.53 0 0 1 -6.68 20.43 31.84 31.84 0 0 1 -3.63 4.18 34.66 34.66 0 0 0 -10.53-43.56l-93.26-68.19a34.65 34.65 0 0 0 -44.74 3.31 35.23 35.23 0 0 1 3-4.83 34.67 34.67 0 0 1 48.44-7.52l93.24 68.18a34.65 34.65 0 0 1 14.16 28z" fill="#e87a74"/><path d="m443.16 470.75v93a63 63 0 1 0 125.93 0v-93z" fill="#fbe7eb"/><path d="m443.16 448.88v93l125.93-27.28v-65.72z" fill="#fcb651"/><path d="m594.88 453.6v3.27a43.68 43.68 0 0 1 -43.69 43.69h-93.73a43.69 43.69 0 0 1 -43.68-43.69v-3.27a90.77 90.77 0 0 1 24-61.39c.84-.9 1.67-1.77 2.53-2.62 1.43-1.44 2.93-2.84 4.48-4.19a85.44 85.44 0 0 1 10.32-7.77c.66-.44 1.32-.85 2-1.25a88.72 88.72 0 0 1 14.75-7.29 90.67 90.67 0 0 1 66.72.69 87.5 87.5 0 0 1 13 6.62c1.49.91 2.94 1.87 4.38 2.87a88.41 88.41 0 0 1 7.91 6.17 85.61 85.61 0 0 1 7.85 7.74 88.22 88.22 0 0 1 8.3 10.73 89.89 89.89 0 0 1 14.86 49.69z" fill="#fff"/><path d="m594.88 453.61v3.27a43.69 43.69 0 0 1 -43.68 43.69h-29.15a97.55 97.55 0 0 0 32.4-122.33c.52.34 1 .69 1.52 1a86.87 86.87 0 0 1 7.9 6.17 90 90 0 0 1 31 68.17z" fill="#ffefed"/><path d="m482.71 302.63v46.79a52.7 52.7 0 0 0 43.29 1.13v-47.92a21.64 21.64 0 0 0 -43.27 0z" fill="#e87a74"/><g fill="#ef948c"><circle cx="450.22" cy="278.23" r="22.09"/><ellipse cx="505.62" cy="272.74" rx="62.46" ry="75.47"/><circle cx="562.44" cy="278.23" r="22.09"/></g><path d="m437.2 277.51a9.57 9.57 0 0 1 5.86-8.83 2.74 2.74 0 0 1 3.71 2.6v12.45a2.78 2.78 0 0 1 -4 2.5 9.58 9.58 0 0 1 -5.57-8.72z" fill="#e87a74"/><path d="m572.86 277.46a9.59 9.59 0 0 1 -5.86 8.83 2.75 2.75 0 0 1 -3.72-2.6v-12.45a2.78 2.78 0 0 1 4-2.5 9.59 9.59 0 0 1 5.58 8.72z" fill="#e87a74"/><circle cx="482.4" cy="281.43" fill="#2b2137" r="4.75"/><circle cx="528.83" cy="281.43" fill="#2b2137" r="4.75"/><path d="m519.39 298.81a13.56 13.56 0 0 1 -4 9.7c-.32.31-.64.61-1 .89a13.88 13.88 0 0 1 -8.8 3.19h-.56a14 14 0 0 1 -8.2-2.57 13.61 13.61 0 0 1 -5.73-9.87 10.55 10.55 0 0 1 -.06-1.13 2.61 2.61 0 0 1 .77-1.88 2.76 2.76 0 0 1 1.9-.79l22.95-.18a2.67 2.67 0 0 1 2.73 2.64z" fill="#962f4a"/><path d="m505.31 310.49a9.81 9.81 0 0 1 -.19 2.11h-.07a13.81 13.81 0 0 1 -13.93-12.44 11.44 11.44 0 0 1 3.07-.45 10.94 10.94 0 0 1 11.12 10.78z" fill="#e1617f"/><path d="m516.16 296.19c-.08 2.68-4.26 4.86-9.43 4.9s-9.38-2.07-9.5-4.75z" fill="#fff"/><path d="m499.62 311.56a14.16 14.16 0 0 0 5.43 1h.56a13.89 13.89 0 0 0 5.52-1.18 11.56 11.56 0 0 0 -11.51.15z" fill="#fff"/><path d="m432.14 535.58h84.34a5.64 5.64 0 0 1 5.64 5.64v244a47.81 47.81 0 0 1 -47.81 47.81 47.81 47.81 0 0 1 -47.81-47.81v-244a5.64 5.64 0 0 1 5.64-5.64z" fill="#8cb7cb" transform="matrix(-.423409 .90593864 -.90593864 -.423409 1295.08 544.34)"/><rect fill="#a1d1e2" height="125.13" rx="8.31" transform="matrix(-.423409 .90593864 -.90593864 -.423409 1279.1 563.95)" width="16.61" x="451.77" y="626.48"/><path d="m597.76 771.48-6.56 14a5.62 5.62 0 0 1 -7.48 2.73l-221.1-103.31a47.8 47.8 0 0 1 -16.27-74.17 47.8 47.8 0 0 0 25.41 57.48l221.1 103.32a5.61 5.61 0 0 0 4.9-.05z" fill="#a1d1e2"/><rect fill="#ef948c" height="144.19" rx="27.04" transform="matrix(-.45647689 -.88973527 .88973527 -.45647689 435.26 1263.51)" width="54.07" x="576.56" y="426.7"/><ellipse cx="547.94" cy="522.76" fill="#ef948c" rx="28.6" ry="36.28" transform="matrix(.3280424 -.944663 .944663 .3280424 -125.62 868.95)"/><path d="m552 543.79a28.5 28.5 0 0 0 12.64-7.94l18.87-9.67 59.62-30.59a27 27 0 0 0 6.12-43.81 27 27 0 0 1 6.83 50.5l-78.49 40.26c-8.24 9.2-23.82 12.49-39 7.25a44.43 44.43 0 0 1 -12.21-6.47 41.53 41.53 0 0 0 25.62.47z" fill="#e87a74"/><rect fill="#3f2a3c" height="173.02" rx="20.44" width="231.54" x="394.51" y="455.37"/><path d="m626.05 475.82v132.12a20.45 20.45 0 0 1 -20.45 20.45h-190.6a20.45 20.45 0 0 1 -20.45-20.45v-13.48h60.93a139.09 139.09 0 0 0 139.05-139.09h11.07a20.44 20.44 0 0 1 20.45 20.45z" fill="#2b2137"/><path d="m526 533a13.82 13.82 0 0 1 -27.13 3.7 13.8 13.8 0 0 0 13.31-13.8 14.12 14.12 0 0 0 -.5-3.7h.5a13.81 13.81 0 0 1 13.82 13.8z" fill="#6e4965"/><g fill="#6c4a67"><circle cx="547.41" cy="227.05" r="37.13"/><circle cx="453.48" cy="239.78" r="31"/><circle cx="508.06" cy="197.27" r="49.56"/></g><path d="m571.73 393.18c-13.55 15.17-38.29 25.33-66.55 25.33-28.86 0-54.05-10.59-67.4-26.3.84-.9 1.67-1.77 2.53-2.62 1.43-1.44 2.93-2.84 4.48-4.19a85.44 85.44 0 0 1 10.32-7.77c.66-.44 1.32-.85 2-1.25a88.72 88.72 0 0 1 14.75-7.29 90.67 90.67 0 0 1 66.72.69 87.5 87.5 0 0 1 13 6.62c1.49.91 2.94 1.87 4.38 2.87a88.41 88.41 0 0 1 7.91 6.17 85.61 85.61 0 0 1 7.86 7.74z" fill="#ef948c"/><g fill="#775674"><circle cx="538.08" cy="221.36" r="24.09"/><circle cx="510.28" cy="197.27" r="33.09"/></g></svg>