<svg viewBox="0 0 1000 1000" xmlns="http://www.w3.org/2000/svg"><path d="m972.14 624.75v10.41a132.93 132.93 0 0 1 -.77 14.33q-.39 3.63-1 7.2c-.4 2.44-.87 4.87-1.4 7.27a131.08 131.08 0 0 1 -7.67 23.71q-2.42 5.57-5.29 10.84a132.78 132.78 0 0 1 -61.77 57.33q-1.95.88-3.93 1.71-5.4 2.24-11.05 4a131.89 131.89 0 0 1 -16.36 4 133.25 133.25 0 0 1 -23.19 2h-53.71a27.32 27.32 0 0 0 -27.31 27.32v101.92h-456.69v-101.91a27.23 27.23 0 0 0 -13.85-23.75 24.6 24.6 0 0 0 -3.51-1.68c-.77-.3-1.55-.57-2.35-.81a27.18 27.18 0 0 0 -3-.68 26 26 0 0 0 -4.61-.4h-90.38c-1.43 0-2.84 0-4.26-.06q-5.25-.16-10.41-.71a136.57 136.57 0 0 1 -21.72-4.1q-6.28-1.71-12.31-4t-11.5-5q-6-2.93-11.66-6.4a137.26 137.26 0 0 1 -16.72-12.06q-4.53-3.81-8.71-8a137.64 137.64 0 0 1 -17.15-20.9 135.94 135.94 0 0 1 -12.74-23.81 133.66 133.66 0 0 1 -6.12-18.52c-.62-2.4-1.16-4.83-1.64-7.27a138.77 138.77 0 0 1 -.83-48.83c.39-2.45.84-4.87 1.37-7.27a137.07 137.07 0 0 1 18.37-44.63 137.35 137.35 0 0 1 116-63.63h106.08a35.65 35.65 0 0 0 24.53-9.74l.76-.73a35.74 35.74 0 0 0 10.47-25.29 35.56 35.56 0 0 0 -5.23-18.61 35.07 35.07 0 0 0 -6-7.39 35.69 35.69 0 0 0 -24.53-9.75h-178.88a83.33 83.33 0 0 1 -58.47-23.86l-.67-.66a83.58 83.58 0 0 1 0-118.24c.22-.22.44-.44.67-.65l.21-.21a83.41 83.41 0 0 1 58.23-23.63 69.19 69.19 0 0 0 46.56-17.92c1.07-1 2.1-2 3.11-3 .65-.66 1.28-1.34 1.9-2a69.25 69.25 0 0 0 9.75-13.93c1-1.94 2-3.95 2.82-6a68.18 68.18 0 0 0 4.1-14c0-.16.06-.33.08-.49a65.57 65.57 0 0 0 .88-7.35c.1-1.5.15-3 .15-4.54v-70.6a27.31 27.31 0 0 1 27.31-27.32h636.57a83.39 83.39 0 0 1 67 33.61c.17.21.33.43.49.65q2 2.7 3.75 5.56c.69 1.09 1.34 2.2 2 3.33a83.64 83.64 0 0 1 4.73 10.09c.81 2.07 1.54 4.17 2.18 6.32a81.76 81.76 0 0 1 2.75 12.76q.39 2.81.58 5.67c.13 1.86.19 3.73.19 5.62 0 2.9-.15 5.76-.43 8.58-.11 1.11-.25 2.22-.42 3.32-.32 2.35-.76 4.67-1.28 7-.58 2.49-1.27 4.95-2.06 7.35a82.84 82.84 0 0 1 -10.15 20.41 83.77 83.77 0 0 1 -69.36 36.89h-68a48.54 48.54 0 0 0 -43.55 27c-.51 1-1 2.05-1.41 3.11a47.66 47.66 0 0 0 -3 10.26 48.18 48.18 0 0 0 -.69 8.2 48.55 48.55 0 0 0 48.6 48.59c.89 0 1.77 0 2.65.06a62.66 62.66 0 0 1 21.86 4.89q2.64 1.11 5.13 2.45a64.39 64.39 0 0 1 6.27 3.83 62.93 62.93 0 0 1 27.1 51.79v43a43.92 43.92 0 0 0 31.4 42.14 189.31 189.31 0 0 1 23.28 8.62 165.49 165.49 0 0 1 16.35 8.44 140.26 140.26 0 0 1 20.37 14.57 117.58 117.58 0 0 1 22.29 25.43 112.89 112.89 0 0 1 13.13 28.38 121.11 121.11 0 0 1 3.1 12.45q.36 1.86.69 3.78c.39 2.37.73 4.8 1 7.27a149.89 149.89 0 0 1 .93 16.87z" fill="#f3f4fe"/><path d="m302 820.5v-25.62a27.23 27.23 0 0 0 -13.85-23.75 24.6 24.6 0 0 0 -3.51-1.68c-.77-.3-1.55-.57-2.35-.81a27.18 27.18 0 0 0 -3-.68 26 26 0 0 0 -4.61-.4h-90.38c-1.43 0-2.84 0-4.26-.06q-5.25-.16-10.41-.71a136.57 136.57 0 0 1 -21.72-4.1q-6.28-1.71-12.31-4l77.13-266.34h77.62a35.65 35.65 0 0 0 24.53-9.74l.76-.73a35.74 35.74 0 0 0 10.47-25.29 35.56 35.56 0 0 0 -5.23-18.59 35.07 35.07 0 0 0 -6-7.39 35.69 35.69 0 0 0 -24.53-9.75h-56.91l96.85-334.45h184.27z" fill="#e7eafc"/><path d="m833 86.41-48.41 167.21h-7.88a48.54 48.54 0 0 0 -43.55 27c-.51 1-1 2.05-1.41 3.11a47.66 47.66 0 0 0 -3 10.26 48.18 48.18 0 0 0 -.69 8.2 48.62 48.62 0 0 0 29.46 44.68l-159.19 549.92h-184.27l234.68-810.38z" fill="#e7eafc"/><path d="m928.09 164.4h-747.32v-44.4h730.88c.17.21.33.43.49.65q2 2.7 3.75 5.56c.69 1.09 1.34 2.2 2 3.33a83.64 83.64 0 0 1 4.73 10.09c.81 2.07 1.54 4.17 2.18 6.32a81.76 81.76 0 0 1 2.75 12.76q.35 2.83.54 5.69z" fill="#e3e7fb"/><path d="m927.43 181.92c-.32 2.35-.76 4.67-1.28 7-.58 2.49-1.27 4.95-2.06 7.35h-744.35a65.57 65.57 0 0 0 .88-7.35c.1-1.5.15-3 .15-4.54v-2.41z" fill="#e3e7fb"/><g fill="#cbd2f7"><path d="m633.36 320.06h-80.72l-61.24-233.65h203.2z"/><rect height="18.4" rx="9.2" width="107.45" x="539.28" y="308.57"/><rect height="10.25" rx="5.13" width="71.45" x="557.27" y="330.31"/><rect height="10.25" rx="5.13" width="71.45" x="557.27" y="343.9"/><rect height="10.25" rx="5.13" width="71.45" x="557.27" y="357.5"/><rect height="10.25" rx="5.13" width="71.45" x="557.27" y="371.09"/><rect height="10.25" rx="5.13" width="71.45" x="557.27" y="384.68"/><rect height="10.25" rx="5.13" width="71.45" x="557.27" y="398.27"/><rect height="10.25" rx="5.13" width="71.45" x="557.27" y="411.87"/><rect height="18.47" rx="9.23" width="206.2" x="489.9" y="426.64"/></g><g fill="none" stroke="#cbd2f7" stroke-linecap="round" stroke-miterlimit="10" stroke-width="6"><path d="m561.66 335.44 61.63 13.59"/><path d="m561.66 349.03 61.63 13.59"/><path d="m561.66 362.62 61.63 13.59"/><path d="m561.66 376.21 61.63 13.6"/><path d="m561.66 389.81 61.63 13.59"/><path d="m561.66 403.4 61.63 13.59"/></g><g fill="#b2beed"><path d="m364.11 288.41h-56.2v-8h56.2a27.5 27.5 0 0 0 27.47-27.47v-166.53h8v166.53a35.51 35.51 0 0 1 -35.47 35.47z"/><path d="m391.44 600.59h-11v-230.68a16.68 16.68 0 0 0 -16.66-16.65h-33.71a27.69 27.69 0 0 1 -27.66-27.66v-62a16.68 16.68 0 0 0 -16.65-16.66h-28.76a16.68 16.68 0 0 0 -16.66 16.66v95a27.69 27.69 0 0 1 -27.66 27.66h-20.89a27.69 27.69 0 0 1 -27.66-27.66v-46.46a16.68 16.68 0 0 0 -16.66-16.66h-14.47a16.68 16.68 0 0 0 -16.66 16.66v288.45h-11v-288.45a27.69 27.69 0 0 1 27.66-27.66h14.43a27.69 27.69 0 0 1 27.66 27.66v46.43a16.68 16.68 0 0 0 16.66 16.66h20.85a16.68 16.68 0 0 0 16.66-16.66v-95a27.69 27.69 0 0 1 27.74-27.65h28.8a27.69 27.69 0 0 1 27.65 27.66v62a16.68 16.68 0 0 0 16.66 16.66h33.71a27.69 27.69 0 0 1 27.66 27.65z"/><path d="m356 406.46h53a16.64 16.64 0 0 1 16.64 16.64v184.76a0 0 0 0 1 0 0h-86.29a0 0 0 0 1 0 0v-184.76a16.64 16.64 0 0 1 16.65-16.64z"/><path d="m368.51 388.1h34.84a7 7 0 0 1 7 7v55.3a0 0 0 0 1 0 0h-48.79a0 0 0 0 1 0 0v-55.3a7 7 0 0 1 6.95-7z"/><path d="m258.84 511.34h72a2.84 2.84 0 0 1 2.84 2.84v86.41a0 0 0 0 1 0 0h-74.84a0 0 0 0 1 0 0v-89.25a0 0 0 0 1 0 0z"/></g><path d="m317.26 511.34v89.25h-74.81v-86.41a2.84 2.84 0 0 1 2.84-2.84z" fill="#d9dfff"/><path d="m317.26 511.34v89.25h-74.81v-20.44a59.3 59.3 0 0 0 59.3-59.3v-9.51z" fill="#cbd2f7"/><rect fill="#fff" height="37.9" rx="3.76" width="7.52" x="249.83" y="522.8"/><path d="m404.59 511.34h72a2.84 2.84 0 0 1 2.84 2.84v86.41a0 0 0 0 1 0 0h-74.84a0 0 0 0 1 0 0v-89.25a0 0 0 0 1 0 0z" fill="#b2beed"/><path d="m463 511.34v89.25h-74.8v-86.41a2.84 2.84 0 0 1 2.83-2.84z" fill="#d9dfff"/><path d="m463 511.34v89.25h-74.8v-20.44a59.3 59.3 0 0 0 59.29-59.3v-9.51z" fill="#cbd2f7"/><rect fill="#fff" height="37.9" rx="3.76" width="7.52" x="395.58" y="522.8"/><path d="m550.35 511.34h72a2.84 2.84 0 0 1 2.84 2.84v86.41a0 0 0 0 1 0 0h-74.84a0 0 0 0 1 0 0v-89.25a0 0 0 0 1 0 0z" fill="#b2beed"/><path d="m608.76 511.34v89.25h-74.76v-86.41a2.84 2.84 0 0 1 2.84-2.84z" fill="#d9dfff"/><path d="m608.76 511.34v89.25h-74.76v-20.44a59.3 59.3 0 0 0 59.3-59.3v-9.51z" fill="#cbd2f7"/><rect fill="#fff" height="37.9" rx="3.76" width="7.52" x="541.34" y="522.8"/><path d="m696.1 511.34h72a2.84 2.84 0 0 1 2.84 2.84v86.41a0 0 0 0 1 0 0h-74.84a0 0 0 0 1 0 0v-89.25a0 0 0 0 1 0 0z" fill="#b2beed"/><path d="m754.52 511.34v89.25h-74.81v-86.41a2.84 2.84 0 0 1 2.84-2.84z" fill="#d9dfff"/><path d="m754.52 511.34v89.25h-74.81v-20.44a59.3 59.3 0 0 0 59.3-59.3v-9.51z" fill="#cbd2f7"/><rect fill="#fff" height="37.9" rx="3.76" width="7.52" x="687.09" y="522.8"/><path d="m972.14 624.75v10.41a132.93 132.93 0 0 1 -.77 14.33q-.39 3.63-1 7.2c-.4 2.44-.87 4.87-1.4 7.27h-917.97c-.62-2.4-1.16-4.83-1.64-7.27a138.77 138.77 0 0 1 -.83-48.83c.39-2.45.84-4.87 1.37-7.27h920.31c.39 2.37.73 4.8 1 7.27a149.89 149.89 0 0 1 .93 16.89z" fill="#7f93c9"/><path d="m972.14 624.75v10.41a132.93 132.93 0 0 1 -.77 14.33q-.39 3.63-1 7.2h-921.06a138.77 138.77 0 0 1 -.83-48.83h922.73a149.89 149.89 0 0 1 .93 16.89z" fill="#cbd2f7"/><rect fill="#d2d6fa" height="17.61" rx="8.8" transform="matrix(-1 0 0 -1 221.76 1809.57)" width="74.06" x="73.85" y="895.98"/><rect fill="#d2d6fa" height="17.61" rx="8.8" transform="matrix(-1 0 0 -1 1120.1 1809.57)" width="809.94" x="155.08" y="895.98"/><path d="m707.69 837.03h49.29v40.46h-49.29z" fill="#d85e66"/><path d="m757 837v10.81a32.88 32.88 0 0 1 -49.29 0v-10.81z" fill="#c44e5f"/><path d="m755.71 871.62-29.14-2.27a31.34 31.34 0 0 0 -57.64 17h94v-7a7.77 7.77 0 0 0 -7.22-7.73z" fill="#4160b2"/><path d="m703.5 855.22a31.34 31.34 0 0 0 -28.09 31.18h-6.48a31.31 31.31 0 0 1 34.57-31.18z" fill="#4e75c2"/><path d="m768.74 891a4.83 4.83 0 0 1 -4.22 4.8 4.23 4.23 0 0 1 -.63.05h-93.46a6.81 6.81 0 0 1 -.78-.05 7.36 7.36 0 0 1 0-14.63 7.59 7.59 0 0 1 1.17 0l3.6.19 10.25.56 4.77.26 10.24.55 4.77.25 10.25.55 4.77.26 10.24.55 4.78.26 10.24.55 4.77.26 10.25.55 4.4.23h.37a4.88 4.88 0 0 1 2.89 1.47 4.82 4.82 0 0 1 1.33 3.34z" fill="#254987"/><g fill="#1f447a"><path d="m674.42 881.32v14.52h-4.77v-14.68a7.59 7.59 0 0 1 1.17 0z"/><path d="m689.44 882.14v13.7h-4.78v-13.96z"/><path d="m704.45 882.95v12.89h-4.77v-13.15z"/><path d="m719.47 883.75v12.09h-4.77v-12.35z"/><path d="m734.49 884.56v11.28h-4.78v-11.54z"/><path d="m749.5 885.37v10.47h-4.77v-10.73z"/><path d="m764.52 886.19v9.65h-4.77v-9.92l4.4.23z"/></g><path d="m765.22 531v289.3a32.77 32.77 0 0 1 -13.44 26.5 30.38 30.38 0 0 1 -4.57 2.8 32.48 32.48 0 0 1 -14.88 3.57 32.88 32.88 0 0 1 -32.88-32.87v-289.3z" fill="#254987"/><path d="m672.86 251.44c7 26.77 28 39.16 48.21 37.94l35-39.23a21.79 21.79 0 0 0 3.93-22.81 44.89 44.89 0 0 0 -11.69-16.34c-25.51-22.76-69.79-11.1-75.93 31.74a22.37 22.37 0 0 0 .48 8.7z" fill="#d85e66"/><path d="m682.43 217.51a45 45 0 0 1 77.57 9.84 21.8 21.8 0 0 1 -3.89 22.8l-5 5.63a21.81 21.81 0 0 0 3.88-22.8 45 45 0 0 0 -72.49-15.47z" fill="#ed858f"/><path d="m682.67 225.87a35.47 35.47 0 0 1 50.08-2.87 35.48 35.48 0 0 1 9.73 38.57 35.36 35.36 0 0 1 -6.87 11.5l-47.41 52.73a35.46 35.46 0 0 1 -50 2.76 35.48 35.48 0 0 1 -2.76-50.18z" fill="#d85e66"/><rect fill="#d85e66" height="140.04" rx="27.74" transform="matrix(-.76379603 .64545769 -.64545769 -.76379603 1417.84 152.26)" width="55.49" x="653.31" y="265.57"/><path d="m693.85 385.1-41.18-48.72-5.78-6.85-7.62-9a27.7 27.7 0 0 1 -3-4.32 35.5 35.5 0 0 1 -2.87-19.69 35.32 35.32 0 0 1 8.17-18.13l.58-.66 30.08-33.46 8.24-9.16a54.46 54.46 0 0 1 4.34-11.42 45.17 45.17 0 0 1 32.35-24.09c-18.84.51-37.31 12.81-43.4 36.2l-38.31 42.6a35.29 35.29 0 0 0 -8.75 18.8 27.76 27.76 0 0 0 2.88 19.71 35.41 35.41 0 0 0 8.63 11.67c.65.57 1.31 1.12 2 1.64l47 55.57a27.71 27.71 0 0 0 24 9.69 26.73 26.73 0 0 0 3.32-.55 27.69 27.69 0 0 1 -20.68-9.83z" fill="#ed858f"/><path d="m697.27 613.15h17.73a0 0 0 0 1 0 0v57.5a0 0 0 0 1 0 0h-17.73a6.61 6.61 0 0 1 -6.61-6.61v-44.28a6.61 6.61 0 0 1 6.61-6.61z" fill="#254987"/><path d="m808.8 613.15h17.76a0 0 0 0 1 0 0v57.5a0 0 0 0 1 0 0h-17.76a6.61 6.61 0 0 1 -6.61-6.61v-44.28a6.61 6.61 0 0 1 6.61-6.61z" fill="#30529b" transform="matrix(-.99265212 .12100314 -.12100314 -.99265212 1700.49 1180.47)"/><circle cx="726.88" cy="379.62" fill="#efdcdc" r="42.17"/><path d="m780.25 352.75h-49.43l8.16-58.93h49.43z" fill="#d85e66"/><path d="m777.9 352.75h-54.58l7.2-20.43a3.13 3.13 0 0 1 3-2.09h47.95a3.13 3.13 0 0 1 3 4.17z" fill="#ffebeb"/><path d="m871.03 876.64h-52.96l-8.27-30.17-5.03-18.38h52.95l1.6 5.83z" fill="#f0a284"/><path d="m710.81 236h21.27a14.42 14.42 0 0 1 14.42 14.42v14.58a14.79 14.79 0 0 1 -14.79 14.79 20.9 20.9 0 0 1 -20.9-20.9v-22.89a0 0 0 0 1 0 0z" fill="#54233a" transform="matrix(.98942477 .14504699 -.14504699 .98942477 45.14 -103)"/><path d="m713.74 257.8a20.89 20.89 0 0 0 9.67 20.81 20.9 20.9 0 0 1 -12.56-22.29l3.33-22.66 21.05 3.09a14.39 14.39 0 0 1 5.9 2.26 14.42 14.42 0 0 0 -3-.79l-21.05-3.08z" fill="#662f49"/><path d="m757.88 333.5a57.29 57.29 0 0 1 51.35 79.65c-11.52 27.08-16.88 56.38-16.88 85.81a33.4 33.4 0 0 1 -33.35 33.41h-13.21a46.57 46.57 0 0 1 -46.57-46.57v-95a57.28 57.28 0 0 1 58.66-57.3z" fill="#ffebeb"/><path d="m707.85 485.8v-95a57.09 57.09 0 0 1 16.15-39.86 57.72 57.72 0 0 1 12-9.45l1.69-4.81 1.53-4.35a3.13 3.13 0 0 1 3-2.09h-8.63a3.12 3.12 0 0 0 -3 2.09l-3.23 9.16a57.25 57.25 0 0 0 -28.07 49.27v95a46.57 46.57 0 0 0 46.57 46.57h8.63a46.57 46.57 0 0 1 -46.64-46.53z" fill="#fff"/><path d="m790.69 462.94c6.87-17.45 6-39.31-7.44-60.55a24.1 24.1 0 0 0 -6.11-6.6c-11.89-8.73-24-12.54-35.28-12.54-17.65 0-33.28 9.32-42.91 23.64a59.84 59.84 0 0 0 -10.07 31.53v2.12a60.18 60.18 0 0 0 10.12 33.67v11.59a46.57 46.57 0 0 0 46.56 46.57h13.16a33.41 33.41 0 0 0 33.37-33.37q0-3.27.09-6.53l-11.54-5.62c2.48-5.45 5.81-13.18 10.05-23.91z" fill="#30529b"/><path d="m859.32 833.92a29.87 29.87 0 0 1 -49.51 12.55l-5-18.39h53z" fill="#d85e66"/><path d="m746.09 488.14a46.81 46.81 0 0 1 46.81 46.81v38.87a0 0 0 0 1 0 0h-93.62a0 0 0 0 1 0 0v-38.87a46.81 46.81 0 0 1 46.81-46.81z" fill="#30529b" transform="matrix(-1 0 0 -1 1492.18 1061.96)"/><path d="m848.16 844.54a28 28 0 0 1 -4.07 2.63 29.89 29.89 0 0 1 -43.17-19.53l-69.34-296.64 38.29-.34h4.59l18.32-.16 66.29 283.5a29.82 29.82 0 0 1 -10.91 30.54z" fill="#30529b"/><path d="m801 243.66-.27 3.24-.27 3.13-.66 7.9-.16 2-.14 1.61-2.34 27.9v.26l-.22 2.57a37 37 0 0 1 -33.71 33.82 36.14 36.14 0 0 1 -6.33 0l-12.69-1.09a30.08 30.08 0 0 1 -27.56-30.72c0-.59.05-1.18.1-1.77l3.25-38.51.11-1.39.14-1.65.15-1.75a26.81 26.81 0 0 1 1.34-6.5 27.44 27.44 0 0 1 28.26-18.6l37.06 3.11a14.56 14.56 0 0 1 1.65.24 15.21 15.21 0 0 1 12.29 16.2z" fill="#f0a284"/><path d="m801 243.66-.27 3.24-.27 3.13-.4 4.85-.26 3.05-.16 2-.14 1.61-2.34 27.9v.26l-.22 2.57a36.21 36.21 0 0 1 -1 6.05q-.09.39-.21.78a37 37 0 0 1 -32.49 27 36.14 36.14 0 0 1 -6.33 0l-12.7-1.1a30.08 30.08 0 0 1 -27.56-30.72c0-.59.05-1.18.1-1.77l3.25-38.51.11-1.39.14-1.65.15-1.75a26.81 26.81 0 0 1 1.34-6.5 27.46 27.46 0 0 1 23.34-18.52 26.25 26.25 0 0 1 4.94 0l37.06 3.11a14.56 14.56 0 0 1 1.65.24 15.21 15.21 0 0 1 12.27 16.12z" fill="#f0a284"/><path d="m762.61 326.13a37 37 0 0 1 -5.76 0l-12.64-1.13a30.08 30.08 0 0 1 -27.56-30.72c0-.59.05-1.18.1-1.77l3.25-38.51.11-1.39.14-1.65.15-1.75a26.81 26.81 0 0 1 1.34-6.5 27.46 27.46 0 0 1 23.34-18.52 26.25 26.25 0 0 1 4.94 0h.42a27.44 27.44 0 0 0 -23.33 18.52 26.81 26.81 0 0 0 -1.34 6.5l-.15 1.75-.14 1.65-.11 1.39-3.24 38.59c0 .59-.08 1.18-.1 1.77a30.08 30.08 0 0 0 27.55 30.64l12.64 1.06z" fill="#fcb798"/><path d="m706.92 520.91h11.94a0 0 0 0 1 0 0v89a6 6 0 0 1 -6 6 6 6 0 0 1 -6-6v-89a0 0 0 0 1 .06 0z" fill="#30529b"/><circle cx="712.89" cy="611.87" fill="none" r="10.17" stroke="#30529b" stroke-miterlimit="10" stroke-width="6.89"/><path d="m730 428.25s-1.36-88.86 59.93-90.72c0 0-.37 1.38 1.87 4.58 0 0-39.21-8.4-37.81 79z" fill="#30529b"/><path d="m789.89 337.53c-30.61.93-45.59 23.55-52.93 46-15.63 1.55-29.28 10.41-38 23.39a59.84 59.84 0 0 0 -10.07 31.53v2.12a60.18 60.18 0 0 0 10.11 33.64v11.59a46.5 46.5 0 0 0 19 37.54 46.41 46.41 0 0 1 -16.31-35.34v-11.6a60.22 60.22 0 0 1 -10.11-33.67c0-.72 0-1.43 0-2.13a59.93 59.93 0 0 1 10.07-31.53c8.06-12 20.31-20.45 34.43-22.9 1.18-.21 2.38-.38 3.58-.49.27-.81.54-1.6.82-2.4 7.42-21 21.84-41.6 49.89-43.46a3.9 3.9 0 0 1 -.48-2.29z" fill="#617ec1"/><circle cx="795.43" cy="379.62" fill="#ffebeb" r="42.17"/><path d="m837.6 379.62a42.22 42.22 0 0 1 -49.66 41.51 42.18 42.18 0 0 0 0-83 42.22 42.22 0 0 1 49.66 41.51z" fill="#efdcdc"/><circle cx="744.54" cy="393.52" fill="#254987" r="6.09"/><circle cx="743.01" cy="391.56" fill="#ffebeb" r="4.67"/><path d="m702.16 418.31h46.56a3.59 3.59 0 0 1 3.55 4.14 27.15 27.15 0 0 1 -53.67 0 3.6 3.6 0 0 1 3.56-4.14z" fill="#254987"/><path d="m700.43 416.05h46.57a3.6 3.6 0 0 1 3.56 4.13 27.15 27.15 0 0 1 -53.67 0 3.59 3.59 0 0 1 3.54-4.13z" fill="#4160b2"/><path d="m777.22 243.92h21.27a14.42 14.42 0 0 1 14.42 14.42v14.6a14.79 14.79 0 0 1 -14.79 14.79 20.9 20.9 0 0 1 -20.9-20.9v-22.9a0 0 0 0 1 0 0z" fill="#54233a" transform="matrix(.96965905 .24446129 -.24446129 .96965905 89.13 -186.33)"/><circle cx="798.11" cy="277.73" fill="#f0a284" r="13.91"/><path d="m805 277.57a5.82 5.82 0 0 1 -2.66 4.41 5.8 5.8 0 0 0 -7.35-8.87 5.81 5.81 0 0 1 10 4.46z" fill="#d85e66"/><rect fill="#54233a" height="40.84" rx="19.96" transform="matrix(.98942477 .14504699 -.14504699 .98942477 42.22 -108.68)" width="103.22" x="714.51" y="214.67"/><rect fill="#54233a" height="40.84" rx="20.42" transform="matrix(.98942477 .14504699 -.14504699 .98942477 40.66 -106.24)" width="79.9" x="708.64" y="205.16"/><path d="m714.43 220.57a20.43 20.43 0 0 0 17 23.14l-5.13-.71a20.42 20.42 0 1 1 5.93-40.41l5.31.78a20.8 20.8 0 0 0 -2.92-.21 20.42 20.42 0 0 0 -20.19 17.41z" fill="#662f49"/><rect fill="#662f49" height="23.16" rx="11.58" transform="matrix(.98459487 .17485122 -.17485122 .98459487 50.13 -125.87)" width="41.58" x="718.84" y="210.09"/><circle cx="734.33" cy="265.83" fill="#54233a" r="3.96"/><circle cx="763.58" cy="267.86" fill="#54233a" r="3.96"/><path d="m875.35 871.62-29.14-2.27a31.33 31.33 0 0 0 -57.63 17h93.94v-7a7.77 7.77 0 0 0 -7.17-7.73z" fill="#4160b2"/><path d="m823.15 855.22a31.34 31.34 0 0 0 -28.1 31.18h-6.47a31.31 31.31 0 0 1 34.57-31.18z" fill="#4e75c2"/><path d="m888.38 891a4.82 4.82 0 0 1 -4.21 4.8 4.48 4.48 0 0 1 -.64.05h-93.45a6.53 6.53 0 0 1 -.78-.05 7.36 7.36 0 0 1 -6.58-7.31 7.36 7.36 0 0 1 6.58-7.32 7.56 7.56 0 0 1 1.17 0l3.59.19 10.25.56 4.77.26 10.24.55 4.78.25 10.24.55 4.77.26 10.25.55 4.77.26 10.24.55 4.77.26 10.25.55 4.4.23h.38a4.85 4.85 0 0 1 4.21 4.8z" fill="#254987"/><g fill="#1f447a"><path d="m794.06 881.32v14.52h-4.76v-14.68a7.56 7.56 0 0 1 1.17 0z"/><path d="m809.08 882.14v13.7h-4.77v-13.96z"/><path d="m824.1 882.95v12.89h-4.78v-13.15z"/><path d="m839.11 883.75v12.09h-4.77v-12.35z"/><path d="m854.13 884.56v11.28h-4.77v-11.54z"/><path d="m869.14 885.37v10.47h-4.77v-10.73z"/><path d="m884.17 886.19v9.65h-4.78v-9.92l4.4.23z"/></g><ellipse cx="726.69" cy="499.51" fill="#4160b2" rx="27.24" ry="36.39"/><circle cx="447.23" cy="852.83" fill="#4160b2" r="43"/><path d="m447.23 887a34.4 34.4 0 1 1 0-68.35 34.39 34.39 0 0 0 0 68.35z" fill="#96b8f1"/><path d="m448.26 814.51a30.3 30.3 0 0 1 3.83-.24c19 0 34.39 17.26 34.39 38.57s-15.4 38.56-34.39 38.56a30.3 30.3 0 0 1 -3.83-.24c17.19-2.13 30.56-18.48 30.56-38.32s-13.37-36.2-30.56-38.33z" fill="#254987"/><circle cx="447.23" cy="852.83" fill="#254987" r="22.09"/><circle cx="447.23" cy="852.83" fill="#96b8f1" r="11.12"/><circle cx="223.73" cy="852.83" fill="#4160b2" r="43"/><path d="m223.73 887a34.4 34.4 0 1 1 0-68.35 34.39 34.39 0 0 0 0 68.35z" fill="#96b8f1"/><path d="m224.76 814.51a30.18 30.18 0 0 1 3.83-.24c19 0 34.38 17.26 34.38 38.57s-15.39 38.56-34.38 38.56a30.18 30.18 0 0 1 -3.83-.24c17.19-2.13 30.56-18.48 30.56-38.32s-13.32-36.2-30.56-38.33z" fill="#254987"/><circle cx="223.73" cy="852.83" fill="#254987" r="22.09"/><circle cx="223.73" cy="852.83" fill="#96b8f1" r="11.12"/><circle cx="518.46" cy="852.83" fill="#96b8f1" r="43"/><path d="m518.46 887a34.4 34.4 0 1 1 0-68.35 34.39 34.39 0 0 0 0 68.35z" fill="#fff"/><path d="m519.49 814.51a30.18 30.18 0 0 1 3.83-.24c19 0 34.38 17.26 34.38 38.57s-15.39 38.56-34.38 38.56a30.18 30.18 0 0 1 -3.83-.24c17.19-2.13 30.56-18.48 30.56-38.32s-13.37-36.2-30.56-38.33z" fill="#4160b2"/><circle cx="518.46" cy="852.83" fill="#4160b2" r="22.09"/><circle cx="518.46" cy="852.83" fill="#fff" r="11.12"/><circle cx="294.95" cy="852.83" fill="#96b8f1" r="43"/><path d="m295 887a34.4 34.4 0 1 1 0-68.35 34.39 34.39 0 0 0 0 68.35z" fill="#fff"/><path d="m296 814.51a30.3 30.3 0 0 1 3.83-.24c19 0 34.39 17.26 34.39 38.57s-15.4 38.56-34.39 38.56a30.3 30.3 0 0 1 -3.83-.24c17.19-2.13 30.56-18.48 30.56-38.32s-13.39-36.2-30.56-38.33z" fill="#4160b2"/><circle cx="294.95" cy="852.83" fill="#4160b2" r="22.09"/><circle cx="294.95" cy="852.83" fill="#fff" r="11.12"/><circle cx="613.37" cy="437.13" fill="#254987" r="23.3"/><path d="m556.76 843.65h-426.43a11.43 11.43 0 0 1 -11.48-11.4 11.19 11.19 0 0 1 11.19-11h404.34v-385.85a8.3 8.3 0 0 1 8.3-8.3h68.32a11.43 11.43 0 0 1 11.48 11.4 11.18 11.18 0 0 1 -11.18 11h-54.54z" fill="#4160b2"/><path d="m563.49 843.65h-411.06a11.43 11.43 0 0 1 -11.43-11.4 11.2 11.2 0 0 1 11.19-11h389a15.36 15.36 0 0 0 15.36-15.36v-370.49a8.3 8.3 0 0 1 8.31-8.3h68.33a11.43 11.43 0 0 1 11.48 11.4 11.19 11.19 0 0 1 -11.19 11h-54.62v378.79a15.37 15.37 0 0 1 -15.37 15.36z" fill="#96b8f1"/><path d="m556.38 485.31v335.76h-174.12v-348.67h161.21a12.91 12.91 0 0 1 12.91 12.91z" fill="#f5812d"/><path d="m525 472.4v348.67h-174.16v-335.76a12.91 12.91 0 0 1 12.91-12.91z" fill="#ffb829"/><path d="m525 472.4v348.67h-174.16v-68.67a128.62 128.62 0 0 0 128.62-128.61v-151.39z" fill="#ff8f34"/><rect fill="#ffe88a" height="168.01" rx="10.99" width="21.97" x="422.46" y="494.62"/><path d="m219.05 597.62h180.54a7.12 7.12 0 0 1 7.12 7.12v216.76a0 0 0 0 1 0 0h-187.66a0 0 0 0 1 0 0v-223.88a0 0 0 0 1 0 0z" fill="#f7ac28"/><path d="m365.59 597.61v223.89h-187.65v-216.77a7.12 7.12 0 0 1 7.12-7.12z" fill="#ffe88a"/><path d="m365.59 597.61v223.89h-187.65v-51.28a148.76 148.76 0 0 0 148.76-148.76v-23.85z" fill="#ffc24a"/><rect fill="#fff" height="95.07" rx="9.43" width="18.85" x="196.45" y="626.37"/><circle cx="633.73" cy="437.13" fill="#4160b2" r="23.3"/><path d="m848.16 844.54a28 28 0 0 1 -4.07 2.63l-70.58-285.89a125.85 125.85 0 0 1 -.52-57.91l3.09-13.53 4.48 1-3.09 13.53a121.1 121.1 0 0 0 .5 55.79z" fill="#fff"/><path d="m855.23 836.79a29.86 29.86 0 0 1 -54.31-9.16l-47-201 51.48 186.6a35.23 35.23 0 0 0 49.83 23.56z" fill="#4160b2"/><rect fill="#f0a284" height="140.04" rx="27.74" transform="matrix(.98119173 .19303574 -.19303574 .98119173 96.02 -144.2)" width="55.49" x="760" y="350.46"/><path d="m821.18 367.56a27.74 27.74 0 0 0 -44.51 16.34l-16.33 83a27.61 27.61 0 0 0 1.94 16.79 27.7 27.7 0 0 1 -9.92-27l16.33-83a27.74 27.74 0 0 1 52.49-6.08z" fill="#fcb798"/><path d="m670.13 478.51c-17.21-4.66-27-23.77-21.89-42.67 3.9-14.41 15.35-24.54 28.2-26.48a29.65 29.65 0 0 1 12.22.7l94.91 25.72c17.2 4.66 27 23.76 21.88 42.67-5.12 18.9-23.22 30.45-40.43 25.78z" fill="#f0a284"/><path d="m676.46 409.36s0 0 0 0a32.11 32.11 0 0 0 -4.42 1l16.56-.36a29.59 29.59 0 0 0 -12.14-.64z" fill="#d85e66"/><path d="m626.3 427.86a44.83 44.83 0 0 1 13.45-22.86 16.73 16.73 0 0 1 15.61-3.77l53.64 14.54a45 45 0 1 1 -82.67 12.09z" fill="#f0a284"/><path d="m688.68 410a30.73 30.73 0 0 0 -3.48-.72l-29.84-8.08a17 17 0 0 0 -4.17-.58 16.72 16.72 0 0 0 -11.44 4.38l-.08.09c-.73.66-1.44 1.36-2.13 2.08-.21.22-.4.44-.6.66-.5.54-1 1.09-1.46 1.66-.24.28-.47.58-.7.88-.41.51-.81 1-1.2 1.57-.25.34-.48.69-.72 1-.35.51-.68 1-1 1.55l-.7 1.16c-.3.52-.58 1-.86 1.57s-.44.83-.65 1.26-.5 1.09-.74 1.64-.39.86-.56 1.29c-.31.77-.59 1.56-.85 2.35-.45 1.32-.86 2.66-1.19 4.05a45.12 45.12 0 0 0 31.33 53.58 44.62 44.62 0 0 0 9.91 1.69l-1.59-.42a45.13 45.13 0 0 1 -31.33-53.59c0-.06 0-.13 0-.19a20.11 20.11 0 0 1 22.6-14.88c3.16.47 5.58.85 5.58.85l15.2 2.55a30.18 30.18 0 0 1 3.53.37l30.76 5.23 63.09 10.59z" fill="#fcb798"/><rect fill="#fcb798" height="61.59" rx="8.7" transform="matrix(.24446129 -.96965905 .96965905 .24446129 98.44 1060.75)" width="17.4" x="721.25" y="436.41"/><path d="m739.84 280.45a8.56 8.56 0 0 0 2.31 6.15c.19.2.38.39.59.58a8.57 8.57 0 0 0 5.39 2.14h.35a8.6 8.6 0 0 0 8.81-7.58c0-.24 0-.48.05-.71a1.65 1.65 0 0 0 -.44-1.2 1.63 1.63 0 0 0 -1.16-.52l-14.18-.48a1.67 1.67 0 0 0 -1.72 1.62z" fill="#962f4a"/><path d="m748.35 288a6.52 6.52 0 0 0 .08 1.33h.05a8.58 8.58 0 0 0 8.81-7.58 6.58 6.58 0 0 0 -1.89-.34 6.82 6.82 0 0 0 -7.05 6.59z" fill="#e1617f"/><path d="m741.88 278.85c0 1.69 2.55 3.12 5.74 3.23s5.83-1.15 6-2.83z" fill="#fff"/><g fill="#7f93c9"><path d="m643.69 663.96h64.69v14.92h-64.69z"/><path d="m643.69 881.07h64.69v14.92h-64.69z"/><path d="m653.45 674.73h45.17v209.66h-45.17z"/><path d="m159.87 663.96h64.69v14.92h-64.69z"/><path d="m214.8 674.73v92.83h-30.5c-1.43 0-2.84 0-4.26-.06q-5.25-.16-10.41-.71v-92.06z"/></g></svg>